<svg height="681pt" viewBox="-21 -41 681.33381 681" width="681pt" xmlns="http://www.w3.org/2000/svg"><path d="m143.367188 559.417969h-124.570313c-10.335937 0-18.7148438 8.382812-18.7148438 18.714843 0 10.335938 8.3789068 18.714844 18.7148438 18.714844h162.660156c-3.066406-2.632812-6.054687-5.386718-8.9375-8.277344zm0 0"/><path d="m75.476562 270.992188c-22.382812 22.390624-34.710937 52.152343-34.710937 83.808593s12.328125 61.421875 34.710937 83.804688l123.503907 123.503906c22.382812 22.382813 52.148437 34.710937 83.804687 34.710937 31.660156 0 61.417969-12.328124 83.808594-34.710937l22.050781-22.058594-291.109375-291.109375zm0 0"/><path d="m622.414062 226.886719-211.714843-211.714844c-21.890625-21.890625-57.507813-21.890625-79.394531 0l-207.308594 207.304687 291.113281 291.113282 207.304687-207.308594c21.890626-21.886719 21.890626-57.503906 0-79.394531zm0 0"/></svg>