<svg id="Icons" height="512" viewBox="0 0 74 74" width="512" xmlns="http://www.w3.org/2000/svg"><path d="m32 57.453a1 1 0 0 1 -.707-1.707l32.54-32.54a2.129 2.129 0 0 0 0-3.006l-14.58-14.58a2.177 2.177 0 0 0 -3.006 0l-36.08 36.08a2.129 2.129 0 0 0 0 3.006l11.04 11.04a1 1 0 0 1 -1.414 1.414l-11.04-11.04a4.13 4.13 0 0 1 0-5.834l36.08-36.08a4.126 4.126 0 0 1 5.834 0l14.58 14.58a4.13 4.13 0 0 1 0 5.834l-32.54 32.54a1 1 0 0 1 -.707.293z"/><path d="m40 49.453a1 1 0 0 1 -.707-.293l-19-19a1 1 0 0 1 1.414-1.414l19 19a1 1 0 0 1 -.707 1.707z"/><path d="m32 57.453h-11.5a1 1 0 0 1 0-2h11.5a1 1 0 0 1 0 2z"/><path d="m47.466 65h-18a1 1 0 1 1 0-2h18a1 1 0 0 1 0 2z"/><path d="m54.466 59h-15a1 1 0 0 1 0-2h15a1 1 0 0 1 0 2z"/><path d="m35.966 71h-15a1 1 0 1 1 0-2h15a1 1 0 0 1 0 2z"/></svg>