<svg id="Layer_1" enable-background="new 0 0 511.969 511.969" height="512" viewBox="0 0 511.969 511.969" width="512" xmlns="http://www.w3.org/2000/svg"><g><path d="m0 511.957 111.906-24.128-87.776-87.776z"/><path d="m30.718 212.573h399.546v137.789h-399.546z" transform="matrix(.707 -.707 .707 .707 -131.518 245.422)"/><path d="m387.827 37.693h35.087v137.789h-35.087z" transform="matrix(.707 -.707 .707 .707 43.361 317.859)"/><path d="m472.607 106.586 25.437-25.438c8.979-8.979 13.925-20.918 13.925-33.617 0-12.698-4.945-24.638-13.925-33.617-18.537-18.537-48.698-18.537-67.234 0l-25.438 25.438z"/><path d="m334.875 60.903c-9.789-9.789-22.804-15.18-36.647-15.18s-26.858 5.391-36.647 15.18l-106.65 106.65 21.213 21.213 106.65-106.65c4.123-4.122 9.604-6.393 15.434-6.393s11.312 2.271 15.434 6.393l9.374 9.374 21.213-21.213z"/></g></svg>