<svg viewBox="0 0 511 511.99899" xmlns="http://www.w3.org/2000/svg"><path d="m287.113281 211.238281c-3.910156 3.898438-3.910156 10.238281 0 14.136719 3.898438 3.910156 10.238281 3.910156 14.136719 0 3.910156-3.898438 3.910156-10.238281 0-14.136719-3.898438-3.910156-10.238281-3.910156-14.136719 0zm0 0"/><path d="m466.878906 5.160156c-14.292968 5.523438-32.105468 15.453125-52.941406 29.515625-40.996094 27.667969-89.796875 68.828125-133.894531 112.925781-46.832031 46.832032-106.691407 115.46875-135.179688 160.761719-13.074219-2.710937-26.691406 1.117188-36.449219 10.859375-9 9.003906-12.792968 21.261719-11.402343 33.019532l-55.792969 21.269531c-2.9375 1.121093-5.179688 3.558593-6.046875 6.578125l-34.25 119.027344c-.003906.019531-.007813.035156-.015625.054687l-.011719.050781c-.007812.023438-.011719.050782-.019531.078125-2.101562 7.5625 4.949219 14.53125 12.503906 12.261719l119.019532-34.246094c3.167968-.910156 5.679687-3.320312 6.722656-6.445312l18.582031-55.757813c12.875 2.359375 26.074219-1.5625 35.570313-11.042969 9.625-9.632812 13.542968-23.453124 10.863281-36.449218 45.292969-28.492188 113.925781-88.347656 160.75-135.171875 44.097656-44.101563 85.257812-92.902344 112.925781-133.898438 14.0625-20.835937 23.996094-38.644531 29.515625-52.9375 2.644531-6.851562 10.699219-27.699219-1.027344-39.421875-11.726562-11.730468-32.574219-3.675781-39.421875-1.03125zm-345.066406 454.394532-76.847656 22.113281 49.3125-49.3125c3.90625-3.90625 3.90625-10.238281 0-14.144531-3.902344-3.902344-10.234375-3.902344-14.140625 0l-49.3125 49.3125 22.183593-77.105469 50.707032-19.328125c36.402344 36.398437-.875-.875 35.6875 35.6875zm57.324219-69.625c-7.808594 7.792968-20.445313 7.832031-28.292969.003906l-28.289062-28.289063c-7.796876-7.792969-7.792969-20.484375-.003907-28.277343 6.160157-6.152344 15.246094-7.398438 22.535157-4.03125 5.605468 2.605468 5.554687 4.347656 34.042968 32.3125 7.933594 7.933593 7.65625 20.621093.007813 28.28125zm280.027343-299.515626c-26.925781 39.300782-66.441406 85.917969-108.417968 127.890626-51.742188 51.746093-116.40625 106.183593-155.539063 131.292968-1.890625-2.175781-.441406-.535156-30.226562-30.378906-.671875-.675781-1.375-1.316406-2.089844-1.9375 25.113281-39.132812 79.546875-103.796875 131.292969-155.539062 41.972656-41.976563 88.589844-81.492188 127.890625-108.417969 47.347656-32.4375 66.769531-34.75 70.066406-32.976563 1.777344 3.296875-.542969 22.722656-32.976563 70.066406zm0 0"/><path d="m386.105469 112.242188-70.714844 70.714843c-3.90625 3.90625-3.90625 10.238281 0 14.144531 3.902344 3.902344 10.234375 3.902344 14.140625 0l70.714844-70.714843c3.90625-3.90625 3.90625-10.238281 0-14.144531-3.90625-3.902344-10.238282-3.902344-14.140625 0zm0 0"/></svg>